<?xml version="1.0" encoding="UTF-8"?>
<svg id="Layer_1" xmlns="http://www.w3.org/2000/svg" version="1.1" viewBox="0 0 188.45 55.86">
  <!-- Generator: Adobe Illustrator 30.5.1, SVG Export Plug-In . SVG Version: 2.1.4 Build 3)  -->
  <defs>
    <style>
      .st0 {
        fill: currentColor;
        stroke: currentColor;
        stroke-miterlimit: 10;
        stroke-width: .33px;
      }
    </style>
  </defs>
  <path class="st0" d="M27.13,3.37c1.22-1.09,2.54-1.9,3.96-2.42,1.42-.52,2.89-.79,4.42-.79s3.01.26,4.45.79l-3.08,4.91c-.96-1.05-1.95-1.87-2.98-2.46s-2.04-.88-3.04-.88c-1.09,0-2.14.39-3.14,1.18,1.79,1,3.2,2.29,4.22,3.86,1.02,1.57,1.68,3.23,1.96,4.98.28,1.75.19,3.5-.29,5.27-.48,1.77-1.34,3.35-2.59,4.75-1.24,1.4-2.86,2.53-4.85,3.41-1.99.87-4.36,1.31-7.11,1.31-2.4,0-4.51-.33-6.32-.98-1.81-.65-3.35-1.55-4.62-2.69-.61.7-1.03,1.31-1.24,1.83-.22.52-.33,1.07-.33,1.64,0,1.22.5,2.1,1.51,2.62,1,.52,2.2.87,3.6,1.05,1.4.18,2.85.23,4.35.16s2.78-.1,3.83-.1c2.49-.09,4.77.02,6.84.33,2.07.31,3.85.86,5.34,1.67,1.48.81,2.63,1.9,3.44,3.27.81,1.38,1.21,3.11,1.21,5.21,0,1.97-.52,3.82-1.57,5.57-1.05,1.75-2.48,3.27-4.29,4.58-1.81,1.31-3.93,2.35-6.35,3.11-2.42.76-5.01,1.15-7.76,1.15-3.45,0-6.33-.39-8.64-1.18-2.31-.79-4.12-1.78-5.4-2.98-1.29-1.2-2.07-2.52-2.36-3.96-.28-1.44-.15-2.83.39-4.16.55-1.33,1.48-2.51,2.82-3.54,1.33-1.03,3-1.71,5.01-2.06l.13.13c-1.05.79-1.83,1.75-2.36,2.88-.52,1.13-.79,2.34-.79,3.6s.25,2.53.75,3.8c.5,1.27,1.28,2.4,2.32,3.41,1.05,1,2.35,1.82,3.9,2.46,1.55.63,3.37.93,5.47.88,1.96,0,3.82-.26,5.57-.79,1.74-.52,3.27-1.25,4.58-2.19,1.31-.94,2.35-2.04,3.11-3.31.76-1.27,1.15-2.64,1.15-4.13,0-1.4-.22-2.61-.65-3.63-.44-1.03-1.15-1.86-2.13-2.49-.98-.63-2.27-1.08-3.86-1.34-1.59-.26-3.55-.35-5.86-.26-2.1,0-4.06-.04-5.89-.13-1.83-.09-3.44-.36-4.81-.82-1.37-.46-2.48-1.15-3.31-2.06-.83-.92-1.24-2.2-1.24-3.86-.04-1.26.2-2.43.72-3.5.52-1.07,1.33-2.17,2.42-3.31-1.22-1.22-2.14-2.6-2.75-4.13-.61-1.53-.91-3.09-.88-4.68.02-1.59.35-3.15.98-4.68s1.58-2.89,2.85-4.09c1.27-1.2,2.84-2.16,4.71-2.88,1.88-.72,4.06-1.08,6.55-1.08,1.57,0,3.02.15,4.35.46,1.33.31,2.52.74,3.57,1.31ZM19.6,26.75c1.88,0,3.39-.61,4.55-1.83,1.16-1.22,2-2.74,2.52-4.55.52-1.81.73-3.78.62-5.89-.11-2.12-.51-4.08-1.21-5.89-.7-1.81-1.68-3.33-2.95-4.55s-2.79-1.83-4.58-1.83c-1.88,0-3.4.61-4.55,1.83-1.16,1.22-2,2.74-2.52,4.55-.52,1.81-.72,3.78-.59,5.89.13,2.12.55,4.08,1.24,5.89.7,1.81,1.68,3.33,2.95,4.55,1.26,1.22,2.77,1.83,4.52,1.83Z"/>
  <path class="st0" d="M74.54,26.62c-1.88,3.36-4.24,5.84-7.07,7.43s-5.74,2.39-8.71,2.39c-2.14,0-4.21-.39-6.22-1.18-2.01-.79-3.79-1.94-5.34-3.47-1.55-1.53-2.79-3.39-3.73-5.6-.94-2.2-1.41-4.73-1.41-7.56s.48-5.25,1.44-7.37c.96-2.12,2.22-3.9,3.76-5.34,1.55-1.44,3.32-2.53,5.3-3.27,1.99-.74,4.03-1.11,6.12-1.11s4.01.36,5.73,1.08c1.72.72,3.21,1.64,4.45,2.75,1.24,1.11,2.2,2.36,2.88,3.73.68,1.38,1.02,2.74,1.02,4.09,0,.48-.1.82-.29,1.02-.2.2-.54.36-1.02.49l-22.2,7.01c.44,1.88,1.09,3.55,1.97,5.01.87,1.46,1.9,2.69,3.08,3.67,1.18.98,2.47,1.72,3.86,2.23,1.4.5,2.82.75,4.26.75,2.14,0,4.25-.57,6.32-1.7,2.07-1.14,3.87-2.9,5.4-5.3l.39.26ZM48.74,16.73c0,.74.03,1.46.1,2.16.07.7.14,1.37.23,2.03l15.13-4.58c1-.3,1.65-.62,1.93-.95.28-.33.42-.82.42-1.47,0-2.05-.21-3.82-.62-5.3-.42-1.48-.98-2.69-1.7-3.63-.72-.94-1.56-1.64-2.52-2.09-.96-.46-1.99-.69-3.08-.69-3.06,0-5.47,1.27-7.24,3.8-1.77,2.53-2.65,6.11-2.65,10.74Z"/>
  <path class="st0" d="M88.16,10.38c.44-1.53,1.08-2.88,1.93-4.06s1.83-2.16,2.95-2.95c1.11-.79,2.32-1.38,3.63-1.77,1.31-.39,2.62-.59,3.93-.59,1.4,0,2.76.23,4.09.69,1.33.46,2.5,1.17,3.5,2.13,1,.96,1.81,2.14,2.42,3.54.61,1.4.92,3.06.92,4.98v10.41c0,1.44.02,2.9.07,4.39.04,1.48.15,2.84.33,4.06.17,1.22.43,2.25.75,3.08.33.83.75,1.29,1.28,1.37v.07h-3.27c-1.62,0-2.98-.5-4.09-1.51-1.11-1-1.67-2.84-1.67-5.5v-15.98c0-1.61-.21-3.02-.62-4.22-.42-1.2-.96-2.19-1.64-2.98-.68-.79-1.46-1.36-2.36-1.74-.9-.37-1.82-.56-2.78-.56-1.14,0-2.26.25-3.37.75-1.11.5-2.12,1.24-3.01,2.23s-1.62,2.18-2.16,3.6c-.55,1.42-.82,3.07-.82,4.94v7.4c0,1.49.02,3.01.07,4.58.04,1.57.14,3,.29,4.29.15,1.29.36,2.35.62,3.18.26.83.59,1.24.98,1.24v.07h-10.54v-.07c.48,0,.85-.56,1.11-1.67s.46-2.49.59-4.13c.13-1.64.21-3.39.23-5.27.02-1.88.03-3.6.03-5.17V1.15l6.61,4.06v5.17Z"/>
  <path class="st0" d="M127.84,10.38c.44-1.53,1.08-2.88,1.93-4.06s1.83-2.16,2.95-2.95c1.11-.79,2.32-1.38,3.63-1.77,1.31-.39,2.62-.59,3.93-.59,1.4,0,2.76.23,4.09.69,1.33.46,2.5,1.17,3.5,2.13,1,.96,1.81,2.14,2.42,3.54.61,1.4.92,3.06.92,4.98v10.41c0,1.44.02,2.9.07,4.39.04,1.48.15,2.84.33,4.06.17,1.22.43,2.25.75,3.08.33.83.75,1.29,1.28,1.37v.07h-3.27c-1.62,0-2.98-.5-4.09-1.51-1.11-1-1.67-2.84-1.67-5.5v-15.98c0-1.61-.21-3.02-.62-4.22-.42-1.2-.96-2.19-1.64-2.98-.68-.79-1.46-1.36-2.36-1.74-.9-.37-1.82-.56-2.78-.56-1.14,0-2.26.25-3.37.75-1.11.5-2.12,1.24-3.01,2.23-.9.98-1.62,2.18-2.16,3.6-.55,1.42-.82,3.07-.82,4.94v7.4c0,1.49.02,3.01.07,4.58.04,1.57.14,3,.29,4.29.15,1.29.36,2.35.62,3.18.26.83.59,1.24.98,1.24v.07h-10.54v-.07c.48,0,.85-.56,1.11-1.67s.46-2.49.59-4.13c.13-1.64.21-3.39.23-5.27.02-1.88.03-3.6.03-5.17V1.15l6.61,4.06v5.17Z"/>
  <path class="st0" d="M188.42,2.06c-.52.09-1.18.92-1.96,2.49-.79,1.57-1.68,3.45-2.69,5.63l-11.92,26.59c-.74,1.7-1.64,3.35-2.68,4.94-1.05,1.59-2.21,3.04-3.47,4.36-1.27,1.31-2.62,2.41-4.06,3.31-1.44.89-2.95,1.49-4.52,1.8l-.59-5.83c2.88-.22,5.34-.82,7.37-1.8,2.03-.98,3.7-2.28,5.01-3.9,1.31-1.57,2-3.47,2.06-5.7.07-2.23-.27-4.58-1.02-7.07-.74-2.49-1.77-5.02-3.08-7.6-1.31-2.58-2.73-5-4.26-7.27-1.53-2.27-3.04-4.28-4.55-6.02-1.51-1.75-2.78-3.06-3.83-3.93h10.87c-.35.18-.34.72.03,1.64.37.92.95,2.07,1.74,3.47.79,1.4,1.69,2.96,2.72,4.68,1.02,1.72,1.99,3.46,2.88,5.21.89,1.75,1.65,3.44,2.26,5.08.61,1.64.89,3.09.85,4.35l7.27-16.17c.44-1,.84-1.97,1.21-2.91.37-.94.65-1.79.85-2.55.2-.76.3-1.4.3-1.9s-.13-.8-.39-.88h3.6Z"/>
</svg>